<svg width="42" height="42" viewBox="0 0 42 42" fill="none" xmlns="http://www.w3.org/2000/svg">
<path d="M32.2 37.8001L31.2864 38.8608C31.5521 39.0898 31.894 39.2105 32.2442 39.1993L32.2 37.8001ZM29.2138 33.006C28.7347 32.3992 27.8542 32.2956 27.2474 32.7747C26.6405 33.2538 26.537 34.1341 27.0161 34.7411L29.2138 33.006ZM30.3302 31.8597L29.843 30.547C29.8245 30.554 29.806 30.5613 29.7878 30.5689L30.3302 31.8597ZM25.4637 33.3031L25.2286 31.9227L25.2057 31.9269L25.4637 33.3031ZM16.7712 33.2695L16.5058 34.644L16.5143 34.6457L16.7712 33.2695ZM11.8377 31.8263L11.3274 33.13L11.3288 33.1306L11.8377 31.8263ZM9.38742 30.6853L8.60902 31.8487C8.63974 31.8695 8.67126 31.8888 8.70349 31.9067L9.38742 30.6853ZM9.0855 30.5173L9.86269 29.3528C9.8142 29.3203 9.76374 29.2912 9.7116 29.2652L9.0855 30.5173ZM8.95129 30.4168L9.94123 29.4267C9.84928 29.3349 9.74495 29.2562 9.63127 29.1929L8.95129 30.4168ZM14.9838 34.6737C15.4628 34.0666 15.3591 33.1863 14.7522 32.7072C14.1452 32.2284 13.2649 32.332 12.7859 32.9391L14.9838 34.6737ZM9.8 37.8001L9.75568 39.1993C10.1121 39.2108 10.4594 39.0856 10.7267 38.8496L9.8 37.8001ZM1.4 31.4906H0C0 31.5657 0.00600849 31.6404 0.0179676 31.7143L1.4 31.4906ZM6.23283 7.72406L5.39283 6.60406C5.17843 6.76486 5.01472 6.9838 4.92108 7.23487L6.23283 7.72406ZM15.6636 4.20009L17.0573 4.06734C16.99 3.36048 16.4041 2.81597 15.6942 2.80043L15.6636 4.20009ZM14.6055 7.85703C14.6788 8.62672 15.3623 9.19129 16.132 9.11798C16.9017 9.04468 17.4662 8.36126 17.3929 7.59154L14.6055 7.85703ZM24.4777 7.68016C24.3792 8.44705 24.9211 9.14859 25.688 9.24709C26.4549 9.34559 27.1564 8.80374 27.2549 8.03685L24.4777 7.68016ZM26.3362 4.20031L26.3055 2.80065C25.6131 2.81586 25.0358 3.33503 24.9476 4.02196L26.3362 4.20031ZM35.7669 7.72428L37.0787 7.2351C36.9849 6.98402 36.8214 6.76509 36.6069 6.60431L35.7669 7.72428ZM40.6 31.4906L41.9821 31.7143C41.9941 31.6404 42 31.5657 42 31.4906H40.6ZM18.1471 24.644L16.7471 24.6209V24.644H18.1471ZM32.2 37.8001C33.1136 36.7395 33.1136 36.7395 33.1136 36.7395C33.1136 36.7392 33.1136 36.7392 33.1134 36.7392C33.1131 36.7389 33.1128 36.7387 33.112 36.7381C33.1108 36.737 33.1089 36.7353 33.1061 36.7328C33.1008 36.7283 33.0924 36.721 33.0814 36.7115C33.0596 36.6927 33.0271 36.6645 32.9851 36.6278C32.9008 36.5547 32.779 36.448 32.6295 36.3161C32.3299 36.0518 31.9211 35.687 31.4821 35.2838C30.5726 34.4491 29.6363 33.5411 29.2138 33.006L27.0161 34.7411C27.6005 35.4812 28.7067 36.5368 29.5882 37.3463C30.0446 37.7654 30.4679 38.1431 30.777 38.4159C30.9319 38.5522 31.0584 38.6628 31.1466 38.7395C31.1906 38.7782 31.225 38.8081 31.2488 38.8286C31.2606 38.8387 31.2698 38.8468 31.2763 38.8521C31.2794 38.8549 31.2819 38.8569 31.2836 38.8585C31.2844 38.8591 31.285 38.8597 31.2855 38.8602C31.2858 38.8602 31.2858 38.8605 31.2861 38.8608C31.2861 38.8608 31.2861 38.8608 31.2864 38.8608C31.2864 38.8608 31.2864 38.8608 32.2 37.8001ZM33.4197 28.7105C32.1322 29.5583 30.9182 30.148 29.843 30.547L30.8171 33.1723C32.0911 32.6994 33.495 32.0137 34.9597 31.0491L33.4197 28.7105ZM29.7878 30.5689C28.2013 31.2355 26.6933 31.6735 25.2286 31.9229L25.6988 34.6832C27.3887 34.3953 29.1026 33.8939 30.8722 33.1505L29.7878 30.5689ZM25.2057 31.9269C22.1852 32.4933 19.4095 32.3379 17.0281 31.8933L16.5143 34.6457C19.167 35.141 22.2981 35.3207 25.7217 34.679L25.2057 31.9269ZM17.0366 31.8949C15.2256 31.5452 13.6639 31.0362 12.3466 30.5221L11.3288 33.1306C12.7632 33.6903 14.4905 34.2551 16.5058 34.644L17.0366 31.8949ZM12.3479 30.5227C11.6144 30.2357 10.8377 29.8927 10.0713 29.4637L8.70349 31.9067C9.61559 32.4174 10.517 32.8128 11.3274 33.13L12.3479 30.5227ZM10.1658 29.5217C10.0316 29.4318 9.90455 29.3699 9.86294 29.3492C9.80347 29.3195 9.82957 29.3307 9.86269 29.3528L8.3083 31.6819C8.44217 31.7712 8.56898 31.8328 8.61017 31.8532C8.66922 31.8829 8.64276 31.8714 8.60902 31.8487L10.1658 29.5217ZM9.7116 29.2652C9.76581 29.2921 9.82341 29.3285 9.87896 29.3727C9.92678 29.4108 9.96047 29.4461 9.94123 29.4267L7.96135 31.4066C8.02606 31.4716 8.18762 31.6337 8.45942 31.7695L9.7116 29.2652ZM9.63127 29.1929C9.3541 29.0389 9.14175 28.9099 9.0025 28.8219C8.93292 28.778 8.88174 28.7444 8.85002 28.7234C8.83414 28.7127 8.82316 28.7052 8.81717 28.7013C8.81418 28.699 8.81244 28.6979 8.81196 28.6976C8.81171 28.6973 8.8118 28.6973 8.81222 28.6976C8.81241 28.6979 8.81269 28.6982 8.81306 28.6985C8.81322 28.6985 8.81342 28.6985 8.81364 28.6987C8.81376 28.6987 8.81387 28.699 8.81398 28.699C8.81404 28.699 8.81415 28.699 8.81418 28.699C8.81426 28.6993 8.81437 28.6993 8.01156 29.8462C7.20877 30.9931 7.20888 30.9933 7.20896 30.9933C7.20899 30.9933 7.2091 30.9933 7.20919 30.9933C7.20933 30.9936 7.20947 30.9936 7.20961 30.9936C7.20992 30.9939 7.21022 30.9942 7.21059 30.9945C7.21126 30.995 7.21204 30.9956 7.21288 30.9961C7.21459 30.9973 7.21664 30.9987 7.21902 31.0003C7.22375 31.0037 7.2298 31.0076 7.23716 31.0127C7.25189 31.0227 7.27185 31.0365 7.29688 31.053C7.34698 31.0863 7.41745 31.1325 7.5073 31.1893C7.6869 31.3027 7.94441 31.459 8.27131 31.6407L9.63127 29.1929ZM12.7859 32.9391C12.3585 33.4806 11.4164 34.4085 10.5076 35.26C10.0679 35.6721 9.65835 36.0457 9.35847 36.3164C9.20867 36.4517 9.08664 36.5609 9.00239 36.6359C8.96028 36.6737 8.92763 36.7025 8.90568 36.7221C8.8947 36.7317 8.88642 36.7392 8.88098 36.744C8.87824 36.7465 8.87622 36.7482 8.87496 36.7493C8.87432 36.7499 8.87384 36.7501 8.87356 36.7504C8.87342 36.7507 8.87334 36.7507 8.87328 36.7507C8.87328 36.7507 8.87328 36.7507 8.87326 36.7507C8.87328 36.7507 8.87331 36.7507 9.8 37.8001C10.7267 38.8496 10.7267 38.8496 10.7268 38.8496C10.7268 38.8493 10.7269 38.8493 10.727 38.8493C10.7271 38.849 10.7273 38.849 10.7276 38.8487C10.728 38.8485 10.7287 38.8479 10.7295 38.8471C10.7312 38.8457 10.7336 38.8434 10.7367 38.8406C10.743 38.835 10.7521 38.8269 10.764 38.8165C10.7876 38.7955 10.8221 38.765 10.8661 38.7258C10.9541 38.6471 11.0804 38.534 11.2349 38.3946C11.5436 38.1157 11.9665 37.7301 12.4222 37.3031C13.3042 36.4766 14.4044 35.4078 14.9838 34.6737L12.7859 32.9391ZM9.84432 36.401C6.58048 36.2974 4.86576 34.9411 3.93439 33.7119C3.4512 33.074 3.15725 32.4393 2.98544 31.9658C2.90004 31.7306 2.84645 31.5396 2.81546 31.4147C2.79999 31.3526 2.79026 31.3072 2.78507 31.2815C2.78248 31.2686 2.78103 31.2607 2.78058 31.2582C2.78035 31.2571 2.78037 31.2571 2.78062 31.2585C2.78074 31.2593 2.78092 31.2605 2.78116 31.2619C2.78128 31.2624 2.78141 31.2633 2.78156 31.2641C2.78163 31.2647 2.78175 31.2655 2.78178 31.2655C2.78191 31.2663 2.78203 31.2672 1.4 31.4906C0.0179676 31.7143 0.018101 31.7152 0.0182387 31.716C0.0182899 31.7163 0.0184324 31.7171 0.0185354 31.7177C0.0187417 31.7191 0.0189652 31.7205 0.0192062 31.7219C0.0196883 31.7247 0.0202404 31.7281 0.0208656 31.7317C0.0221158 31.739 0.0236583 31.7477 0.0255154 31.758C0.0292289 31.7785 0.0342042 31.8048 0.0406216 31.8364C0.0534498 31.9 0.072081 31.9854 0.0979728 32.0895C0.149677 32.2979 0.230821 32.5835 0.353438 32.9211C0.597677 33.594 1.01299 34.4925 1.70262 35.4028C3.11693 37.2695 5.60224 39.068 9.75568 39.1993L9.84432 36.401ZM2.8 31.4906C2.8 26.2652 3.97337 20.4592 5.17031 15.9111C5.76604 13.6475 6.36188 11.7167 6.8082 10.3535C7.03128 9.67219 7.21672 9.13349 7.34577 8.76681C7.41028 8.58349 7.46068 8.44324 7.49462 8.34972C7.51159 8.30299 7.52441 8.26793 7.53284 8.245C7.53707 8.23355 7.54018 8.22515 7.54214 8.21983C7.54312 8.21717 7.54384 8.21529 7.54424 8.21417C7.54443 8.21364 7.54457 8.21327 7.54463 8.21311C7.54466 8.21302 7.54466 8.21305 7.54468 8.21302C7.54466 8.21308 7.5446 8.21322 6.23283 7.72406C4.92108 7.23487 4.921 7.23512 4.92089 7.23537C4.92083 7.23554 4.92072 7.23585 4.92058 7.23619C4.92036 7.2368 4.92005 7.23764 4.91968 7.23865C4.9189 7.24069 4.91786 7.24352 4.91652 7.24714C4.91386 7.25436 4.91002 7.26472 4.9051 7.2781C4.89524 7.3049 4.88093 7.34393 4.86251 7.39475C4.82563 7.49636 4.77221 7.6451 4.70459 7.83723C4.56932 8.22154 4.37721 8.77974 4.14719 9.48226C3.68738 10.8867 3.07499 12.8713 2.46252 15.1985C1.24305 19.8321 0 25.9094 0 31.4906H2.8ZM7.07286 8.84406C9.31134 7.16515 11.4875 6.35452 13.0924 5.96292C13.895 5.76706 14.5526 5.67659 14.9995 5.63495C15.2228 5.61415 15.3928 5.60558 15.5014 5.60211C15.5556 5.60037 15.5944 5.59992 15.6167 5.59984C15.6278 5.59978 15.6348 5.59981 15.6376 5.59984C15.639 5.59987 15.6393 5.59987 15.6385 5.59987C15.6381 5.59984 15.6375 5.59984 15.6365 5.59981C15.6361 5.59981 15.6355 5.59981 15.6349 5.59978C15.6346 5.59978 15.6341 5.59978 15.634 5.59978C15.6335 5.59976 15.6329 5.59976 15.6636 4.20009C15.6942 2.80043 15.6937 2.8004 15.6931 2.8004C15.6929 2.8004 15.6922 2.80037 15.6918 2.80037C15.6909 2.80034 15.69 2.80034 15.6889 2.80032C15.6869 2.80029 15.6846 2.80023 15.682 2.8002C15.6767 2.80011 15.6704 2.80003 15.6629 2.79996C15.6479 2.79983 15.6286 2.79975 15.6048 2.79985C15.5574 2.80005 15.4927 2.80096 15.4118 2.80356C15.25 2.80874 15.0231 2.82062 14.7398 2.84702C14.1736 2.89977 13.3796 3.01068 12.4286 3.24272C10.5264 3.7069 7.98717 4.65826 5.39283 6.60406L7.07286 8.84406ZM14.2699 4.33281L14.6055 7.85703L17.3929 7.59154L17.0573 4.06734L14.2699 4.33281ZM27.2549 8.03685L27.7248 4.37868L24.9476 4.02196L24.4777 7.68016L27.2549 8.03685ZM26.3362 4.20031C26.3669 5.59998 26.3664 5.59998 26.3659 5.60001C26.3657 5.60001 26.3652 5.60001 26.3649 5.60001C26.3643 5.60004 26.3638 5.60003 26.3633 5.60006C26.3624 5.60006 26.3617 5.60009 26.3613 5.60009C26.3605 5.60009 26.3609 5.60009 26.3623 5.60009C26.365 5.60006 26.372 5.60001 26.3832 5.60006C26.4055 5.60015 26.4442 5.6006 26.4985 5.60233C26.607 5.6058 26.777 5.61434 27.0003 5.63515C27.4472 5.67678 28.1047 5.76722 28.9075 5.96306C30.5122 6.35466 32.6883 7.16526 34.9269 8.84426L36.6069 6.60431C34.0127 4.65839 31.4734 3.70701 29.5711 3.24286C28.6202 3.01082 27.8261 2.89994 27.2599 2.84722C26.9767 2.82084 26.7497 2.80894 26.5879 2.80376C26.507 2.80118 26.4423 2.80029 26.3948 2.80008C26.3712 2.79998 26.3518 2.80006 26.3368 2.8002C26.3293 2.80026 26.323 2.80034 26.3178 2.80043C26.3151 2.80046 26.3128 2.80051 26.3108 2.80054C26.3097 2.80057 26.3088 2.8006 26.3079 2.8006C26.3075 2.8006 26.3068 2.80062 26.3066 2.80062C26.306 2.80065 26.3055 2.80065 26.3362 4.20031ZM35.7669 7.72428C34.4551 8.21347 34.4551 8.21336 34.4551 8.21327C34.4551 8.2133 34.4551 8.21327 34.4551 8.21336C34.4551 8.21353 34.4554 8.21389 34.4554 8.21442C34.456 8.21554 34.4565 8.21742 34.4576 8.22008C34.4596 8.2254 34.4627 8.23383 34.4669 8.24528C34.4753 8.26818 34.4882 8.30324 34.5052 8.35C34.5391 8.44349 34.5895 8.58374 34.6539 8.76706C34.783 9.13372 34.9686 9.67241 35.1915 10.3537C35.6378 11.717 36.2337 13.6477 36.8295 15.9113C38.0265 20.4592 39.2 26.2652 39.2 31.4906H42C42 25.9094 40.7568 19.8322 39.5374 15.1986C38.9248 12.8714 38.3124 10.8869 37.8526 9.48243C37.6225 8.77991 37.4304 8.2217 37.2952 7.83743C37.2277 7.6453 37.1742 7.49656 37.1372 7.39495C37.1188 7.34413 37.1045 7.3051 37.0947 7.2783C37.0896 7.26491 37.086 7.25458 37.0832 7.24736C37.0818 7.24375 37.081 7.24089 37.0801 7.23885C37.0798 7.23784 37.0793 7.237 37.0793 7.23638C37.079 7.23607 37.079 7.23574 37.079 7.2356C37.0787 7.23532 37.0787 7.2351 35.7669 7.72428ZM40.6 31.4906C39.2179 31.2672 39.2182 31.2663 39.2182 31.2655C39.2182 31.2652 39.2185 31.2647 39.2185 31.2641C39.2185 31.2633 39.2188 31.2624 39.2188 31.2619C39.219 31.2605 39.2193 31.2593 39.2193 31.2585C39.2196 31.2571 39.2196 31.2571 39.2193 31.2582C39.219 31.2607 39.2176 31.2686 39.2148 31.2815C39.2098 31.3072 39.2 31.3526 39.1846 31.4147C39.1535 31.5396 39.1 31.7306 39.0146 31.9658C38.8427 32.4393 38.5487 33.074 38.0654 33.7119C37.1342 34.9411 35.4194 36.2974 32.1558 36.401L32.2442 39.1993C36.3978 39.068 38.883 37.2695 40.2973 35.4028C40.987 34.4925 41.4022 33.5943 41.6466 32.9211C41.7693 32.5835 41.8502 32.2979 41.902 32.0895C41.928 31.9854 41.9465 31.9 41.9594 31.8364C41.9658 31.8048 41.9709 31.7785 41.9745 31.758C41.9762 31.7477 41.9779 31.739 41.979 31.7317C41.9798 31.7281 41.9804 31.7247 41.9807 31.7219C41.981 31.7205 41.9812 31.7191 41.9815 31.7177C41.9815 31.7171 41.9818 31.7163 41.9818 31.716C41.9818 31.7152 41.9821 31.7143 40.6 31.4906ZM14.7239 19.5188C11.9205 19.5188 9.90083 21.9463 9.90083 24.644H12.7008C12.7008 23.2474 13.7013 22.3188 14.7239 22.3188V19.5188ZM9.90083 24.644C9.90083 27.3511 11.9624 29.7695 14.7239 29.7695V26.9694C13.7264 26.9694 12.7008 26.0316 12.7008 24.644H9.90083ZM14.7239 29.7695C17.5274 29.7695 19.5471 27.3419 19.5471 24.644H16.7471C16.7471 26.0408 15.7466 26.9694 14.7239 26.9694V29.7695ZM19.5469 24.6671C19.592 21.9291 17.5074 19.5188 14.7239 19.5188V22.3188C15.7662 22.3188 16.7696 23.2645 16.7473 24.6209L19.5469 24.6671ZM26.974 19.5188C24.1706 19.5188 22.1505 21.9461 22.1505 24.644H24.9505C24.9505 23.2476 25.951 22.3188 26.974 22.3188V19.5188ZM22.1505 24.644C22.1505 27.3514 24.2128 29.7695 26.974 29.7695V26.9694C25.9763 26.9694 24.9505 26.0314 24.9505 24.644H22.1505ZM26.974 29.7695C29.7774 29.7695 31.7971 27.3419 31.7971 24.644H28.9971C28.9971 26.0409 27.9965 26.9694 26.974 26.9694V29.7695ZM31.7971 24.644C31.7971 21.9463 29.7774 19.5188 26.974 19.5188V22.3188C27.9965 22.3188 28.9971 23.2474 28.9971 24.644H31.7971ZM10.4703 12.4292C14.5109 10.2256 17.8015 9.19739 21.0066 9.19579C24.2108 9.1942 27.4964 10.2186 31.5272 12.4278L32.8728 9.9724C28.6093 7.6355 24.8499 6.39389 21.0052 6.39579C17.1613 6.3977 13.3991 7.64255 9.12968 9.97097L10.4703 12.4292Z" fill="white"/>
</svg>
