<svg width="70" height="70" viewBox="0 0 70 70" fill="none" xmlns="http://www.w3.org/2000/svg">
<path d="M53.6667 62.9999L52.1439 64.7677C52.5868 65.1494 53.1566 65.3505 53.7404 65.3318L53.6667 62.9999ZM48.6897 55.0096C47.8912 53.9984 46.4237 53.8257 45.4123 54.6242C44.4009 55.4227 44.2283 56.8899 45.0268 57.9016L48.6897 55.0096ZM50.5503 53.0991L49.7383 50.9114C49.7075 50.9231 49.6767 50.9352 49.6463 50.9478L50.5503 53.0991ZM42.4395 55.5048L42.0476 53.2041L42.0095 53.2111L42.4395 55.5048ZM27.9521 55.4488L27.5097 57.7396L27.5239 57.7424L27.9521 55.4488ZM19.7295 53.0436L18.879 55.2164L18.8813 55.2173L19.7295 53.0436ZM15.6457 51.1419L14.3484 53.0809C14.3996 53.1155 14.4521 53.1476 14.5058 53.1775L15.6457 51.1419ZM15.1425 50.8619L16.4378 48.9211C16.357 48.8669 16.2729 48.8184 16.186 48.775L15.1425 50.8619ZM14.9188 50.6944L16.5687 49.0442C16.4155 48.8912 16.2416 48.76 16.0521 48.6546L14.9188 50.6944ZM24.973 57.7891C25.7714 56.7774 25.5985 55.3102 24.5869 54.5117C23.5753 53.7137 22.1081 53.8864 21.3098 54.8981L24.973 57.7891ZM16.3333 62.9999L16.2595 65.3318C16.8535 65.351 17.4323 65.1424 17.8778 64.749L16.3333 62.9999ZM2.33333 52.4841H0C0 52.6091 0.0100142 52.7337 0.029946 52.8569L2.33333 52.4841ZM10.388 12.8731L8.98805 11.0064C8.63072 11.2744 8.35786 11.6393 8.20181 12.0578L10.388 12.8731ZM26.1059 6.99983L28.4288 6.77858C28.3166 5.60048 27.3402 4.69295 26.157 4.66705L26.1059 6.99983ZM24.3425 13.0947C24.4647 14.3775 25.6038 15.3185 26.8866 15.1963C28.1694 15.0741 29.1104 13.9351 28.9882 12.6522L24.3425 13.0947ZM40.7962 12.7999C40.6321 14.0781 41.5352 15.2473 42.8133 15.4115C44.0915 15.5757 45.2607 14.6726 45.4249 13.3944L40.7962 12.7999ZM43.8936 7.0002L43.8424 4.66743C42.6884 4.69277 41.7264 5.55806 41.5793 6.70293L43.8936 7.0002ZM59.6115 12.8735L61.7979 12.0582C61.6415 11.6397 61.369 11.2748 61.0115 11.0069L59.6115 12.8735ZM67.6667 52.4841L69.9701 52.8569C69.9902 52.7337 70 52.6091 70 52.4841H67.6667ZM30.2452 41.073L27.9118 41.0346V41.073H30.2452ZM53.6667 62.9999C55.1894 61.2322 55.1894 61.2322 55.1894 61.2322C55.1894 61.2317 55.1894 61.2317 55.1889 61.2317C55.1885 61.2313 55.188 61.2308 55.1866 61.2298C55.1847 61.228 55.1815 61.2252 55.1768 61.221C55.1679 61.2135 55.1539 61.2014 55.1357 61.1855C55.0993 61.1543 55.0452 61.1071 54.9752 61.046C54.8347 60.9242 54.6317 60.7464 54.3825 60.5266C53.8832 60.0861 53.2019 59.478 52.4701 58.806C50.9544 57.4149 49.3939 55.9014 48.6897 55.0096L45.0268 57.9016C46.0009 59.135 47.8445 60.8943 49.3136 62.2435C50.0743 62.9421 50.7799 63.5716 51.2951 64.0261C51.5531 64.2534 51.7641 64.4377 51.9111 64.5656C51.9843 64.63 52.0417 64.6799 52.0814 64.714C52.101 64.7308 52.1164 64.7443 52.1271 64.7532C52.1323 64.7578 52.1365 64.7611 52.1393 64.7639C52.1407 64.7649 52.1416 64.7658 52.1425 64.7667C52.143 64.7667 52.143 64.7672 52.1435 64.7677C52.1435 64.7677 52.1435 64.7677 52.1439 64.7677C52.1439 64.7677 52.1439 64.7676 53.6667 62.9999ZM55.6995 47.8505C53.5537 49.2636 51.5303 50.2464 49.7383 50.9114L51.3618 55.2869C53.4851 54.4987 55.825 53.3558 58.2661 51.7481L55.6995 47.8505ZM49.6463 50.9478C47.0022 52.0589 44.4888 52.7888 42.0477 53.2046L42.8313 57.805C45.6478 57.3252 48.5044 56.4895 51.4537 55.2505L49.6463 50.9478ZM42.0095 53.2111C36.9754 54.1552 32.3492 53.8962 28.3802 53.1551L27.5239 57.7424C31.945 58.568 37.1635 58.8676 42.8694 57.798L42.0095 53.2111ZM28.3944 53.1579C25.376 52.575 22.7732 51.7266 20.5777 50.8698L18.8813 55.2173C21.2719 56.1502 24.1509 57.0914 27.5097 57.7396L28.3944 53.1579ZM20.5799 50.8708C19.3573 50.3924 18.0629 49.8208 16.7856 49.1059L14.5058 53.1775C16.026 54.0287 17.5283 54.6876 18.879 55.2164L20.5799 50.8708ZM16.9431 49.2024C16.7194 49.0526 16.5076 48.9495 16.4382 48.915C16.3391 48.8655 16.3826 48.8842 16.4378 48.9211L13.8472 52.8028C14.0703 52.9517 14.2816 53.0543 14.3503 53.0884C14.4487 53.1378 14.4046 53.1187 14.3484 53.0809L16.9431 49.2024ZM16.186 48.775C16.2764 48.8198 16.3723 48.8805 16.4649 48.9542C16.5446 49.0177 16.6008 49.0764 16.5687 49.0442L13.2689 52.3441C13.3768 52.4523 13.646 52.7225 14.099 52.9489L16.186 48.775ZM16.0521 48.6546C15.5902 48.3979 15.2362 48.1828 15.0042 48.0363C14.8882 47.963 14.8029 47.907 14.75 47.872C14.7236 47.8542 14.7053 47.8416 14.6953 47.8351C14.6903 47.8314 14.6874 47.8295 14.6866 47.829C14.6862 47.8286 14.6863 47.8286 14.687 47.829C14.6874 47.8295 14.6878 47.83 14.6884 47.8305C14.6887 47.8305 14.689 47.8305 14.6894 47.8309C14.6896 47.8309 14.6898 47.8314 14.69 47.8314C14.6901 47.8314 14.6902 47.8314 14.6903 47.8314C14.6904 47.8319 14.6906 47.8318 13.3526 49.7433C12.0146 51.6548 12.0148 51.6553 12.0149 51.6553C12.015 51.6553 12.0152 51.6553 12.0153 51.6553C12.0155 51.6557 12.0158 51.6557 12.016 51.6557C12.0165 51.6562 12.017 51.6566 12.0176 51.6571C12.0188 51.658 12.0201 51.659 12.0215 51.6599C12.0243 51.6618 12.0277 51.6641 12.0317 51.6669C12.0396 51.6725 12.0497 51.6791 12.0619 51.6875C12.0865 51.7043 12.1198 51.7271 12.1615 51.7546C12.245 51.8102 12.3624 51.8872 12.5122 51.9819C12.8115 52.1709 13.2407 52.4313 13.7855 52.7342L16.0521 48.6546ZM21.3098 54.8981C20.5975 55.8006 19.0273 57.3472 17.5127 58.7663C16.7799 59.4533 16.0972 60.0758 15.5974 60.5271C15.3478 60.7525 15.1444 60.9344 15.004 61.0595C14.9338 61.1225 14.8794 61.1706 14.8428 61.2032C14.8245 61.2191 14.8107 61.2317 14.8016 61.2396C14.7971 61.2438 14.7937 61.2466 14.7916 61.2485C14.7905 61.2494 14.7897 61.2499 14.7893 61.2504C14.789 61.2509 14.7889 61.2509 14.7888 61.2509C14.7888 61.2509 14.7888 61.2509 14.7888 61.2509C14.7888 61.2509 14.7889 61.2509 16.3333 62.9999C17.8778 64.749 17.8779 64.749 17.878 64.749C17.878 64.7485 17.8782 64.7485 17.8783 64.7485C17.8786 64.748 17.8788 64.7481 17.8793 64.7476C17.8801 64.7471 17.8811 64.7462 17.8825 64.7448C17.8853 64.7425 17.8893 64.7387 17.8946 64.7341C17.905 64.7247 17.9202 64.7112 17.9399 64.6939C17.9793 64.6589 18.0368 64.608 18.1101 64.5427C18.2568 64.4116 18.4673 64.2231 18.7249 63.9907C19.2394 63.5259 19.9442 62.8833 20.7036 62.1716C22.1736 60.794 24.0074 59.0127 24.973 57.7891L21.3098 54.8981ZM16.4072 60.668C10.9675 60.4953 8.10959 58.2348 6.55732 56.1861C5.75199 55.123 5.26209 54.0651 4.97574 53.276C4.83341 52.884 4.74409 52.5657 4.69243 52.3576C4.66664 52.254 4.65044 52.1784 4.64179 52.1354C4.63747 52.114 4.63505 52.1009 4.63429 52.0967C4.63391 52.0949 4.63394 52.0949 4.63436 52.0972C4.63456 52.0986 4.63487 52.1004 4.63526 52.1028C4.63546 52.1037 4.63568 52.1051 4.63593 52.1065C4.63605 52.1075 4.63624 52.1088 4.63631 52.1088C4.63651 52.1102 4.63672 52.1117 2.33333 52.4841C0.029946 52.8569 0.0301684 52.8583 0.0303979 52.8597C0.0304831 52.8602 0.0307207 52.8616 0.0308923 52.8625C0.0312361 52.8648 0.0316087 52.8672 0.0320103 52.8695C0.0328138 52.8742 0.0337341 52.8798 0.034776 52.8858C0.0368597 52.898 0.0394306 52.9125 0.0425256 52.9297C0.0487149 52.9638 0.0570071 53.0077 0.0677026 53.0604C0.0890829 53.1663 0.120135 53.3086 0.163288 53.4822C0.249461 53.8294 0.384701 54.3054 0.589064 54.8682C0.996128 55.9896 1.68832 57.4872 2.8377 59.0043C5.19489 62.1156 9.33707 65.113 16.2595 65.3318L16.4072 60.668ZM4.66667 52.4841C4.66667 43.7751 6.62228 34.0983 8.61719 26.5183C9.61007 22.7456 10.6031 19.5276 11.347 17.2555C11.7188 16.12 12.0279 15.2222 12.243 14.611C12.3505 14.3055 12.4345 14.0717 12.491 13.9159C12.5193 13.838 12.5407 13.7796 12.5547 13.7413C12.5618 13.7223 12.567 13.7083 12.5702 13.6994C12.5719 13.695 12.5731 13.6918 12.5737 13.69C12.5741 13.6891 12.5743 13.6885 12.5744 13.6882C12.5744 13.688 12.5744 13.6881 12.5745 13.688C12.5744 13.6881 12.5743 13.6884 10.388 12.8731C8.20181 12.0578 8.20167 12.0582 8.20148 12.0586C8.20139 12.0589 8.2012 12.0594 8.20097 12.06C8.20059 12.061 8.20008 12.0624 8.19947 12.0641C8.19817 12.0675 8.19644 12.0722 8.1942 12.0782C8.18977 12.0903 8.18337 12.1075 8.17516 12.1298C8.15873 12.1745 8.13489 12.2396 8.10418 12.3243C8.04272 12.4936 7.95368 12.7415 7.84098 13.0617C7.61553 13.7022 7.29535 14.6326 6.91199 15.8034C6.14563 18.1442 5.12498 21.4518 4.1042 25.3305C2.07175 33.0532 0 43.182 0 52.4841H4.66667ZM11.7881 14.7398C15.5189 11.9416 19.1458 10.5905 21.8207 9.93787C23.1584 9.61143 24.2543 9.46065 24.9992 9.39126C25.3713 9.35659 25.6547 9.34231 25.8356 9.33652C25.926 9.33363 25.9906 9.33288 26.0278 9.33274C26.0463 9.33265 26.0581 9.33269 26.0626 9.33274C26.0649 9.33279 26.0654 9.33279 26.0642 9.33279C26.0635 9.33274 26.0624 9.33274 26.0609 9.33269C26.0601 9.33269 26.0592 9.33269 26.0582 9.33265C26.0577 9.33265 26.0568 9.33265 26.0566 9.33265C26.0558 9.3326 26.0548 9.3326 26.1059 6.99983C26.157 4.66705 26.1561 4.66701 26.1551 4.66701C26.1548 4.66701 26.1537 4.66696 26.153 4.66696C26.1515 4.66691 26.1499 4.66691 26.1482 4.66687C26.1448 4.66682 26.1409 4.66673 26.1366 4.66668C26.1279 4.66653 26.1173 4.66639 26.1048 4.66628C26.0799 4.66605 26.0476 4.66592 26.0081 4.66609C25.929 4.66643 25.8212 4.66794 25.6863 4.67228C25.4166 4.68091 25.0384 4.7007 24.5663 4.74471C23.6226 4.83263 22.2993 5.01747 20.7144 5.4042C17.544 6.17784 13.3119 7.76343 8.98805 11.0064L11.7881 14.7398ZM23.7832 7.22103L24.3425 13.0947L28.9882 12.6522L28.4288 6.77858L23.7832 7.22103ZM45.4249 13.3944L46.208 7.29747L41.5793 6.70293L40.7962 12.7999L45.4249 13.3944ZM43.8936 7.0002C43.9449 9.33297 43.9439 9.33297 43.9431 9.33302C43.9429 9.33302 43.942 9.33302 43.9415 9.33302C43.9405 9.33307 43.9396 9.33307 43.9389 9.33311C43.9373 9.33311 43.9362 9.33316 43.9355 9.33316C43.9342 9.33316 43.9348 9.33316 43.9371 9.33316C43.9417 9.33311 43.9534 9.33302 43.9719 9.33311C44.0091 9.33325 44.0737 9.334 44.1641 9.33689C44.345 9.34268 44.6284 9.35691 45.0005 9.39159C45.7454 9.46098 46.8412 9.61171 48.1791 9.9381C50.8536 10.5908 54.4805 11.9418 58.2115 14.7401L61.0115 11.0069C56.6879 7.76367 52.4557 6.17803 49.2851 5.40443C47.7003 5.01771 46.3769 4.83291 45.4332 4.74503C44.9611 4.70107 44.5829 4.68124 44.3132 4.67261C44.1783 4.66831 44.0705 4.66682 43.9914 4.66647C43.9519 4.66631 43.9196 4.66644 43.8947 4.66668C43.8822 4.66677 43.8716 4.66691 43.8629 4.66705C43.8585 4.6671 43.8547 4.66719 43.8513 4.66724C43.8495 4.66729 43.848 4.66733 43.8465 4.66733C43.8458 4.66733 43.8447 4.66738 43.8444 4.66738C43.8434 4.66743 43.8424 4.66743 43.8936 7.0002ZM59.6115 12.8735C57.4252 13.6888 57.4252 13.6886 57.4252 13.6885C57.4252 13.6885 57.4252 13.6885 57.4252 13.6886C57.4252 13.6889 57.4257 13.6895 57.4257 13.6904C57.4266 13.6922 57.4275 13.6954 57.4294 13.6998C57.4327 13.7087 57.4378 13.7227 57.4448 13.7418C57.4588 13.78 57.4803 13.8384 57.5087 13.9163C57.5652 14.0722 57.6492 14.3059 57.7565 14.6114C57.9717 15.2225 58.2811 16.1204 58.6525 17.2559C59.3964 19.528 60.3895 22.7459 61.3825 26.5185C63.3775 34.0984 65.3333 43.7751 65.3333 52.4841H70C70 43.182 67.928 33.0533 65.8957 25.3307C64.8746 21.452 63.854 18.1444 63.0877 15.8037C62.7041 14.6329 62.384 13.7025 62.1586 13.0621C62.0461 12.7418 61.957 12.4939 61.8954 12.3246C61.8646 12.2399 61.8408 12.1748 61.8245 12.1302C61.8161 12.1079 61.81 12.0906 61.8053 12.0786C61.803 12.0726 61.8016 12.0678 61.8002 12.0644C61.7997 12.0627 61.7988 12.0613 61.7988 12.0603C61.7983 12.0598 61.7983 12.0592 61.7983 12.059C61.7979 12.0585 61.7979 12.0582 59.6115 12.8735ZM67.6667 52.4841C65.3632 52.1117 65.3637 52.1102 65.3637 52.1088C65.3637 52.1084 65.3641 52.1075 65.3641 52.1065C65.3641 52.1051 65.3646 52.1037 65.3646 52.1028C65.3651 52.1004 65.3655 52.0986 65.3655 52.0972C65.366 52.0949 65.366 52.0949 65.3655 52.0967C65.3651 52.1009 65.3627 52.114 65.3581 52.1354C65.3497 52.1784 65.3333 52.254 65.3077 52.3576C65.2559 52.5657 65.1667 52.884 65.0244 53.276C64.7379 54.0651 64.2479 55.123 63.4424 56.1861C61.8903 58.2348 59.0324 60.4953 53.5929 60.668L53.7404 65.3318C60.6629 65.113 64.8051 62.1156 67.1622 59.0043C68.3116 57.4872 69.0037 55.9901 69.4111 54.8682C69.6155 54.3054 69.7503 53.8294 69.8367 53.4822C69.8801 53.3086 69.9109 53.1663 69.9323 53.0604C69.9431 53.0077 69.9515 52.9638 69.9575 52.9297C69.9603 52.9125 69.9631 52.898 69.965 52.8858C69.9664 52.8798 69.9673 52.8742 69.9678 52.8695C69.9683 52.8672 69.9687 52.8648 69.9692 52.8625C69.9692 52.8616 69.9697 52.8602 69.9697 52.8597C69.9697 52.8583 69.9701 52.8569 67.6667 52.4841ZM24.5398 32.531C19.8675 32.531 16.5014 36.5768 16.5014 41.073H21.168C21.168 38.7453 22.8355 37.1977 24.5398 37.1977V32.531ZM16.5014 41.073C16.5014 45.5849 19.9374 49.6154 24.5398 49.6154V44.9487C22.8773 44.9487 21.168 43.3857 21.168 41.073H16.5014ZM24.5398 49.6154C29.2124 49.6154 32.5785 45.5695 32.5785 41.073H27.9118C27.9118 43.4011 26.2444 44.9487 24.5398 44.9487V49.6154ZM32.5782 41.1114C32.6534 36.5482 29.179 32.531 24.5398 32.531V37.1977C26.277 37.1977 27.9494 38.7739 27.9121 41.0346L32.5782 41.1114ZM44.9567 32.531C40.2843 32.531 36.9175 36.5765 36.9175 41.073H41.5842C41.5842 38.7456 43.2517 37.1977 44.9567 37.1977V32.531ZM36.9175 41.073C36.9175 45.5853 40.3547 49.6154 44.9567 49.6154V44.9487C43.2938 44.9487 41.5842 43.3853 41.5842 41.073H36.9175ZM44.9567 49.6154C49.6291 49.6154 52.9951 45.5695 52.9951 41.073H48.3285C48.3285 43.4012 46.6608 44.9487 44.9567 44.9487V49.6154ZM52.9951 41.073C52.9951 36.5768 49.6291 32.531 44.9567 32.531V37.1977C46.6609 37.1977 48.3285 38.7453 48.3285 41.073H52.9951ZM17.4505 20.715C24.1849 17.0423 29.6692 15.3287 35.011 15.326C40.3513 15.3233 45.8274 17.0307 52.5453 20.7126L54.7881 16.6203C47.6821 12.7255 41.4164 10.6562 35.0086 10.6593C28.6022 10.6625 22.3319 12.7373 15.2161 16.618L17.4505 20.715Z" fill="#51CBE6"/>
</svg>
