<svg width="43" height="43" viewBox="0 0 43 43" fill="none" xmlns="http://www.w3.org/2000/svg">
<g clip-path="url(#clip0_69_12)">
<path d="M35.3996 11.5947L39.9405 10.2811C39.2994 10.9641 38.6013 11.5905 37.8502 12.1564L37.2299 12.6238L37.2535 13.4001C37.2608 13.6398 37.2645 13.8804 37.2645 14.1184C37.2645 19.8084 35.0592 25.5937 31.2092 29.9613L31.2092 29.9613C28.1382 33.4454 22.6413 37.6028 13.7801 37.6028C10.3772 37.6028 7.0429 36.8676 3.98135 35.457C6.93808 35.2566 9.75429 34.3455 12.2551 32.7791L15.3441 30.8444L11.7881 30.0445C9.29875 29.4845 7.21652 27.7189 6.27937 25.2988L6.95802 23.2415C4.99907 22.0733 3.62204 20.0717 3.26344 17.7812C3.32432 17.8037 3.38542 17.8256 3.44674 17.8469L8.64401 19.6469L5.08017 15.4575C3.90605 14.0773 3.24076 12.3108 3.24076 10.4459C3.24076 9.47063 3.42482 8.50797 3.77777 7.61092C8.02259 12.3189 13.9101 15.2613 20.2171 15.8151L22.0721 15.9779L21.8362 14.1307C21.794 13.801 21.7727 13.4658 21.7727 13.1282C21.7727 8.86683 25.2421 5.39746 29.5036 5.39746C31.5221 5.39746 33.4787 6.19842 34.9165 7.60344L35.4962 8.16983L36.2876 7.99545C37.3494 7.76151 38.3833 7.43271 39.3808 7.01237C39.2087 7.26026 39.022 7.49806 38.8217 7.72456L35.3996 11.5947ZM6.12546 24.8632C6.12552 24.8634 6.12558 24.8636 6.12564 24.8638L6.12546 24.8632ZM5.20589 25.9012L5.20593 25.9012C5.20592 25.9012 5.2059 25.9012 5.20589 25.9012Z" stroke="white" stroke-width="3"/>
</g>
<defs>
<clipPath id="clip0_69_12">
<rect width="43" height="43" fill="white"/>
</clipPath>
</defs>
</svg>
