<svg width="72" height="72" viewBox="0 0 72 72" fill="none" xmlns="http://www.w3.org/2000/svg">
<g clip-path="url(#clip0_801_52)">
<path d="M19.516 51.2936C14.9361 50.2634 11.1187 46.9724 9.47563 42.4728C9.72169 42.5099 9.96829 42.5408 10.215 42.5654L11.1323 39.7845C7.10415 37.3824 4.43715 33.0266 4.30308 28.1656C4.88536 28.4594 5.48683 28.7137 6.10221 28.9269L11.2995 30.7269L7.73563 26.5375C5.61546 24.0452 4.41461 20.8554 4.41461 17.4905C4.41461 15.1843 4.98478 12.9163 6.06529 10.901C13.0616 19.2737 23.1245 24.5233 33.9401 25.4729L35.7952 25.6358L35.5592 23.7886C35.4833 23.1937 35.4448 22.5897 35.4448 21.9817C35.4448 14.2877 41.707 8.02563 49.4013 8.02563C53.046 8.02563 56.5757 9.47068 59.1718 12.0074L59.7514 12.5738L60.5428 12.3995C63.255 11.8019 65.8542 10.822 68.2877 9.48022C67.6913 10.9971 66.8343 12.3906 65.7615 13.6039L62.3394 17.4741L67.3021 16.0385C68.1792 15.7847 69.0434 15.4898 69.8923 15.1541C68.2237 17.4469 66.2427 19.462 63.9856 21.1625L63.3653 21.6299L63.3889 22.4062C63.4015 22.8179 63.4078 23.2309 63.4078 23.6398C63.4078 33.4187 59.6219 43.3423 53.016 50.8364L53.0159 50.8364C47.7349 56.8279 38.273 63.9741 23.0734 63.9741C15.8367 63.9741 8.77968 62.0379 2.56986 58.361C3.23518 58.406 3.90395 58.4287 4.57038 58.4287C10.0962 58.4287 15.371 56.917 19.9831 54.0283L23.0721 52.0936L19.516 51.2936ZM5.74971 10.5186C5.74942 10.5183 5.74914 10.5179 5.74885 10.5176L5.74892 10.5176C5.74918 10.518 5.74945 10.5183 5.74971 10.5186ZM68.7018 8.99709C68.7017 8.99703 68.7016 8.99698 68.7016 8.99692L68.7014 8.99681L68.7018 8.99709ZM68.59 8.6309C68.5902 8.63037 68.5904 8.62983 68.5905 8.6293L68.5905 8.62938C68.5903 8.62989 68.5902 8.6304 68.59 8.6309ZM70.5553 14.2038C70.5557 14.2033 70.556 14.2028 70.5563 14.2023L70.5563 14.2024C70.5559 14.2029 70.5556 14.2033 70.5553 14.2038ZM1.1219 58.2266C1.12114 58.2265 1.12039 58.2264 1.11963 58.2263L1.12045 58.2264C1.12093 58.2265 1.12141 58.2265 1.1219 58.2266Z" stroke="#51CBE6" stroke-width="3"/>
</g>
<defs>
<clipPath id="clip0_801_52">
<rect width="72" height="72" fill="white"/>
</clipPath>
</defs>
</svg>
