<svg width="31" height="25" viewBox="0 0 31 25" fill="none" xmlns="http://www.w3.org/2000/svg">
<path d="M4.83026 0.874764C5.89927 1.1612 6.91278 1.55295 7.87079 2.05002C8.82881 2.54708 9.78253 3.06016 10.732 3.58926C11.6814 4.11835 12.6224 4.62803 13.5549 5.11827C14.5044 5.64737 15.5136 6.05513 16.5826 6.34157L17.4225 6.56664C17.5673 6.43373 17.8695 6.17132 18.3291 5.77942C18.8142 5.39434 19.3801 4.96224 20.0268 4.48311C20.6649 4.03602 21.3711 3.53849 22.1454 2.99053C22.9365 2.48143 23.7275 2.02379 24.5183 1.61761C25.3006 1.24348 26.0486 0.946029 26.7625 0.725261C27.4678 0.53653 28.1004 0.517185 28.6604 0.667225C28.7622 0.694505 28.9149 0.735425 29.1185 0.789985C29.3136 0.876582 29.4832 0.956359 29.6273 1.02932C29.7883 1.14113 29.911 1.29418 29.9953 1.48847C30.0796 1.68276 30.0875 1.90805 30.0188 2.16435C29.8128 2.93324 29.4714 3.54568 28.9945 4.00165C28.5091 4.48967 27.9518 4.88973 27.3226 5.20186C26.7188 5.5208 26.0727 5.79406 25.3843 6.02165C24.7213 6.25606 24.0795 6.51331 23.4589 6.79339C22.8551 7.11234 22.3191 7.48378 21.8508 7.90771C21.374 8.36369 21.0369 8.9601 20.8394 9.69696C20.642 10.4338 20.6526 11.1578 20.8713 11.8688C21.09 12.5798 21.4063 13.2826 21.8204 13.9773C22.2513 14.7108 22.7203 15.4546 23.2276 16.2086C23.7517 17.0014 24.1993 17.8253 24.5704 18.6801C24.967 19.5418 25.2359 20.4723 25.3774 21.4717C25.5188 22.471 25.4307 23.5634 25.1131 24.7488C24.4259 24.5646 23.8581 24.1893 23.4097 23.6228C22.9528 23.0883 22.547 22.4645 22.1925 21.7514C21.8634 21.0452 21.5515 20.2749 21.2568 19.4405C20.9534 18.6381 20.6161 17.8609 20.2447 17.109C19.8901 16.3959 19.4589 15.7653 18.9511 15.2172C18.4432 14.6691 17.8203 14.2961 17.0821 14.0984C16.7258 14.0029 16.1436 14.1903 15.3356 14.6605C14.5276 15.1308 13.6174 15.7281 12.6048 16.4526C11.6092 17.2159 10.5666 18.0526 9.47712 18.9624C8.41309 19.8791 7.41714 20.7454 6.48925 21.5613C5.56137 22.3771 4.77393 23.076 4.12692 23.6581C3.47992 24.2402 3.08405 24.5977 2.93932 24.7306C2.88842 24.7169 2.74413 24.6954 2.50648 24.6661C2.29427 24.6436 2.14999 24.6221 2.07363 24.6016C1.64094 24.4857 1.28076 24.2518 0.9931 23.9C0.696853 23.5803 0.630283 23.1161 0.793386 22.5074C0.810555 22.4433 0.849033 22.3506 0.908824 22.2293C0.96003 22.14 0.989926 22.0793 0.99851 22.0473C1.24535 21.8387 1.5986 21.5385 2.05825 21.1466C2.53477 20.7935 3.07092 20.3706 3.66672 19.8778C4.26252 19.3851 4.87963 18.8637 5.51804 18.3137C6.18192 17.7705 6.79902 17.2491 7.36937 16.7495C7.96517 16.2567 8.49718 15.7983 8.96541 15.3744C9.4591 14.9573 9.81235 14.6571 10.0252 14.4737C10.306 14.2399 10.6466 13.9363 11.0467 13.5628C11.4723 13.1961 11.8725 12.8226 12.2472 12.4423C12.6388 12.1008 12.9666 11.7938 13.2306 11.5211C13.4946 11.2485 13.6182 11.0928 13.6013 11.0539L13.0446 9.77162C12.8842 9.45394 12.4394 9.12872 11.7102 8.79597C10.9724 8.49526 10.0945 8.15704 9.07674 7.78131C8.08439 7.4124 7.02841 7.02643 5.90879 6.62342C4.78918 6.22041 3.77582 5.77719 2.86871 5.29377C1.95302 4.84239 1.23281 4.3232 0.708096 3.73622C0.18338 3.14923 0.0111558 2.51935 0.191428 1.84656C0.354531 1.23785 0.631721 0.814232 1.02299 0.575698C1.40569 0.369202 1.82625 0.275868 2.2847 0.295696C2.7686 0.322344 3.23962 0.397048 3.69777 0.519808C4.14733 0.674605 4.52483 0.792924 4.83026 0.874764Z" fill="white"/>
</svg>
